<?xml version="1.0" encoding="utf-8"?>
<!-- Generator: Adobe Illustrator 23.0.0, SVG Export Plug-In . SVG Version: 6.00 Build 0)  -->
<svg version="1.1" id="Layer_1" xmlns="http://www.w3.org/2000/svg" xmlns:xlink="http://www.w3.org/1999/xlink" x="0px" y="0px"
	 viewBox="0 0 595.28 585" style="enable-background:new 0 0 595.28 585;" xml:space="preserve">
<style type="text/css">
	.st0{fill:#FE6693;}
	.st1{fill:#71CCE1;}
	.st2{fill:#FBDF6D;}
	.st3{fill:#FEFEFE;}
	.st4{fill:#95502D;}
	.st5{fill:#7FB170;}
	.st6{fill:#72CCE0;}
	.st7{fill:#FE6694;}
	.st8{fill:#FE6895;}
	.st9{fill:#71CCE0;}
	.st10{fill:#71CBDF;}
	.st11{fill:#F9DE6D;}
</style>
<g>
	<path class="st0" d="M553.64,339.76c0,69,0,138,0,207c-1.74,1.4-3.81,0.98-5.77,0.98c-80.95,0.02-161.91,0.02-242.86,0.01
		c-6.69,0-7.33-0.67-7.59-7.43c-0.11-2.99,0.14-6.01-0.34-8.98c-0.45-2.76-1.94-4.68-4.94-4.66c-2.99,0.01-4.5,1.95-4.93,4.7
		c-0.54,3.47-0.16,6.99-0.41,10.48c-0.35,4.87-1.29,5.88-6.06,5.88c-37.65,0.04-75.29,0.04-112.94,0c-5.13,0-6-0.93-6.33-6.13
		c-0.17-2.66-0.1-5.33-0.1-7.99c0-42.48,0-84.95-0.01-127.43c0-3.5,0.06-6.99,0.28-10.49c-0.57-16.81-0.29-33.61-0.17-50.42
		c0.05-5.99,1.58-7.61,7.35-7.66c18.14-0.15,36.28-0.45,54.41,0.16c5.14-0.31,10.29-0.4,15.43,0.01
		c13.47-0.57,26.95-0.32,40.43-0.18c6.03,0.06,7.44,1.71,7.73,7.9c0.15,3.16-0.11,6.33,0.31,9.48c0.38,2.91,1.77,5.18,5,5.23
		c3.29,0.05,4.63-2.26,5.01-5.16c0.45-3.47,0.11-6.99,0.35-10.47c0.35-5.17,1.86-6.64,7.1-6.98c2.33-0.15,4.66-0.1,6.99-0.1
		c57.25,0,114.5,0,171.75-0.01c3.16,0,6.32,0.13,9.48,0.29c18.33-0.6,36.66-0.22,54.98-0.21
		C550.01,337.57,552.14,337.83,553.64,339.76z"/>
	<path class="st1" d="M41.64,244.76c0-69,0-138,0-207c1.39-0.86,2.93-0.48,4.39-0.48c37-0.02,74-0.02,111-0.01
		c5.96,0,6.54,0.52,6.8,6.51c0.14,3.17,0.34,6.31,1.06,9.42c0.7,3.03,2,5.55,5.53,5.26c3.49-0.29,4.49-3.03,4.78-6.06
		c0.28-2.99,0.09-6,0.25-8.99c0.29-5.38,1-6.12,6.19-6.13c82-0.01,163.99-0.01,245.99,0c5.18,0,6.04,0.75,6.16,6.12
		c0.28,13,0.1,26,0.11,39c0.02,32.33,0.03,64.66-0.02,97c-0.01,3.29,0.49,6.71-1.51,9.72c-2.58,2.6-5.93,1.86-9,1.87
		c-30.33,0.09-60.65,0.05-90.98,0.05c-26.99,0-53.99-0.01-80.98,0c-10.37,0-10.37,0.02-10.52,10.15c-0.02,1.67-0.01,3.34-0.2,4.99
		c-0.56,4.84-4.63,8.51-9.45,8.56c-4.84,0.05-9.03-3.55-9.62-8.37c-0.36-2.98-0.15-5.99-0.29-8.99c-0.23-5.07-1.25-6.19-6.3-6.28
		c-9.66-0.18-19.33,0-28.99-0.09c-2.64-0.03-5.35,0.29-7.88-0.83c-2.37-1.57-2.57-4.04-2.67-6.55c-0.14-3.63,0.2-7.28-0.3-10.89
		c-0.4-2.89-1.87-5.07-5.06-5.12c-2.86-0.04-4.44,1.76-5.19,4.44c-0.99,3.54-1.13,7.16-1.14,10.8c-0.01,2.65,0,5.35-2.45,7.2
		c-2.5,1.29-5.21,0.94-7.84,0.96c-12.31,0.08-24.62,0.03-36.93,0.03c-11.66,0.01-11.65,0.01-11.66,11.42
		c-0.01,11.81,0.07,23.62-0.06,35.44c-0.03,2.6,0.42,5.4-1.78,7.54c-2.33,1.66-5.03,1.57-7.68,1.58
		c-15.31,0.06-30.61,0.07-45.92-0.01C46.69,246.98,43.71,247.37,41.64,244.76z"/>
	<path class="st2" d="M431.49,188.6c18.46,0.06,36.91,0.25,55.37,0.07c4.51-0.05,5.87,1.15,5.86,5.79
		c-0.17,48.39-0.1,96.78-0.1,145.17c-22.64,0.05-45.28,0.13-67.91,0.15c-39.62,0.02-79.24,0.09-118.86-0.1
		c-4.88-0.02-6.62,1.4-6.05,6.18c0.31,2.63,0.08,5.32,0.04,7.98c-0.1,6.11-3,9.64-7.77,9.53c-4.73-0.11-7.46-3.64-7.53-9.81
		c-0.04-3-0.21-6.01,0.04-8.99c0.31-3.7-1.06-4.91-4.81-4.87c-13.65,0.15-27.3-0.02-40.95-0.07c-2.31-1.47-2.28-3.83-2.33-6.16
		c-0.07-3.14,0.14-6.29-0.21-9.41c-0.35-3.1-1.78-5.56-5.21-5.5c-3.37,0.06-4.88,2.38-5.09,5.59c-0.22,3.3-0.07,6.61-0.16,9.91
		c-0.06,2.2-0.18,4.34-2.41,5.58c-17.93,0.05-35.87,0.22-53.8,0.05c-4.43-0.04-6.03,1.02-5.96,5.76c0.23,16.77,0,33.54-0.05,50.31
		c-18.5,0-37-0.15-55.49,0.1c-4.5,0.06-5.53-1.32-5.52-5.64c0.15-46.33,0.1-92.65,0.09-138.98c0-2.16-0.1-4.33-0.16-6.49
		c0.06-16.92,0.25-33.85,0.09-50.77c-0.04-4.07,0.99-5.36,5.21-5.32c18.08,0.18,36.17-0.01,54.26-0.06
		c4.19-2.9,11.2-2.91,15.69-0.01c13.65,0.06,27.31,0.26,40.96,0.08c3.85-0.05,4.96,1.22,4.72,4.86c-0.25,3.81-0.16,7.66,0.02,11.48
		c0.22,4.62,3.29,7.64,7.5,7.72c4.42,0.09,7.56-3.04,7.84-7.89c0.09-1.66,0.04-3.33,0.04-5c0.01-11.08,0.01-11.08,11.33-11.08
		c1.5,0,3,0,4.5,0c56.79,0,113.58,0,170.37-0.01C427.17,188.77,429.33,188.66,431.49,188.6z"/>
	<path class="st3" d="M437.59,445.16c-0.38,5.19,0.75,12.2-0.7,19.13c-1.9,9.09-7.35,14.65-16.33,16.8
		c-5.59,1.34-11.26,1.35-16.83,0.2c-10.07-2.09-16.15-8.39-17.19-18.74c-1.3-12.91-1.36-25.92,0.06-38.83
		c1.09-9.86,7.04-15.77,16.65-18.13c4.61-1.14,9.28-1.19,13.88-0.59c12.64,1.63,19.9,9.64,20.43,22.43
		C437.77,432.74,437.59,438.07,437.59,445.16z"/>
	<path class="st3" d="M348.99,404.71c5,0,9.99,0.01,14.99,0c4.83-0.01,5.72,3.25,5.72,7.06c0.01,3.8-0.85,7.09-5.68,7.09
		c-5.83,0.01-11.67,0.17-17.49-0.04c-3.36-0.13-5.08,0.9-4.82,4.43c0.02,0.33-0.03,0.66-0.05,1c-0.43,8.31-0.43,8.31,7.96,8.75
		c20.41,1.07,30.64,18.96,21.39,37.39c-0.07,0.15-0.14,0.3-0.22,0.45c-5.34,9.39-14.14,11.41-23.95,11.14
		c-9.67-0.27-18.1-3.06-22.96-12.26c-0.9-1.71-1.3-3.79-1.48-5.74c-0.49-5.36,1.16-7.69,5.55-8.34c6.84-1.01,9.56,0.5,10.67,6.21
		c0.83,4.28,3.88,5.54,7.59,5.87c4.45,0.41,8.39-0.51,10.27-5.2c3.83-9.51-1-16.75-11.13-16.76c-4.16-0.01-8.33,0.07-12.49-0.03
		c-5.43-0.13-7.56-2.03-7.14-7.25c0.8-9.95,1.96-19.87,3.08-29.79c0.3-2.63,1.74-4.1,4.7-4.01
		C338.66,404.82,343.83,404.71,348.99,404.71z"/>
	<path class="st3" d="M472.12,486.25c-4.24-0.3-6.43-4.16-4.49-8.32c3.24-6.93,6.66-13.77,10-20.65
		c8.43-17.34,16.9-34.67,25.28-52.03c1.5-3.12,3.26-5.46,7.2-4.52c4.15,0.99,5.48,4.45,3.25,9.04
		c-7.54,15.56-15.16,31.07-22.75,46.61c-4.16,8.51-8.35,17.02-12.46,25.55C476.91,484.52,475.26,486.38,472.12,486.25z"/>
	<path class="st3" d="M206.38,486.26c-4.46-0.02-6.86-4.05-4.8-8.48c3.36-7.23,6.93-14.37,10.42-21.54
		c8.29-17.04,16.57-34.09,24.89-51.12c2.19-4.49,5.23-5.84,8.63-3.82c3.66,2.18,3.4,5.14,1.7,8.59
		c-9.77,19.83-19.44,39.71-29.15,59.57c-2.12,4.33-4.28,8.64-6.33,13C210.65,484.8,209,486.18,206.38,486.26z"/>
	<path class="st3" d="M530.45,460.4c0,1.66-0.01,3.32,0,4.98c0.03,5.68-0.62,11.27-6.29,14.18c-6.43,3.31-13.19,3.27-19.6-0.2
		c-4.19-2.27-5.64-6.43-5.77-10.95c-0.16-5.48-0.21-10.97,0-16.44c0.34-8.59,5.48-13.11,14.75-13.31
		c10.58-0.23,16.02,3.84,16.78,12.77c0.26,2.97,0.04,5.97,0.04,8.96C530.4,460.4,530.42,460.4,530.45,460.4z"/>
	<path class="st3" d="M232.65,459.81c0-1.99-0.02-3.98,0-5.98c0.09-10.28,4.99-15.1,15.41-15.18c10.96-0.08,15.95,4.44,16.24,14.9
		c0.13,4.81,0.21,9.64-0.06,14.44c-0.54,9.6-6.14,14.05-16.92,13.76c-9.54-0.26-14.5-5.15-14.67-14.48
		C232.61,464.79,232.65,462.3,232.65,459.81z"/>
	<path class="st3" d="M481.93,426.44c0,2.83,0.12,5.67-0.03,8.5c-0.46,8.76-5.84,13.02-16.12,12.9
		c-9.76-0.12-14.93-4.67-15.13-13.41c-0.1-4.33-0.04-8.66-0.03-13c0.03-12.99,7.08-18.81,19.92-16.45
		c7.31,1.34,11.04,5.54,11.38,12.97C482.04,420.77,481.93,423.61,481.93,426.44z"/>
	<path class="st3" d="M184.54,426.27c0-2.67-0.07-5.33,0.01-8c0.26-8.98,5.49-13.5,15.53-13.52c10.11-0.01,15.41,4.43,15.72,13.34
		c0.15,4.33,0.07,8.66,0.06,12.99c-0.04,13.33-7.68,19.33-20.81,16.37c-6.73-1.52-10.22-5.69-10.48-12.69
		C184.46,431.94,184.55,429.1,184.54,426.27z"/>
	<path class="st2" d="M299.69,395.76c-5.01,0-10.01,0-15.02,0.01c-0.02-1.97-0.22-3.96-0.03-5.91c0.4-4.06,3.71-7.05,7.55-7.04
		c3.85,0.01,7.18,3.01,7.54,7.03C299.91,391.8,299.71,393.79,299.69,395.76z"/>
	<path class="st4" d="M265.13,102.44c4.83,0,9.67-0.07,14.5,0.02c4.86,0.09,6.81,2.21,6.84,7.17c0.03,4.99-1.92,7.21-6.69,7.28
		c-5.83,0.08-11.67,0.14-17.5-0.02c-2.78-0.08-3.67,0.88-3.88,3.67c-0.73,9.84-0.84,9.83,9.22,10.36
		c14.32,0.75,22.36,8.78,22.69,22.66c0.39,15.97-6.93,24.92-21.69,26.34c-7.44,0.72-14.71,0.03-21.15-4.19
		c-5.81-3.8-9.22-9.03-8.86-16.27c0.22-4.42,3.04-6.15,6.93-6.3c4-0.15,8.24-0.38,9.54,4.97c1.46,6.02,4.28,8.01,10.2,7.42
		c5.39-0.55,7.99-3.46,8.33-9.37c0.51-8.92-2.84-12.44-11.91-12.48c-4.5-0.02-9,0-13.5-0.03c-4.07-0.03-6.52-2.19-6.19-6.17
		c0.86-10.45,2.09-20.87,3.24-31.3c0.31-2.83,2.07-3.85,4.87-3.78C255.13,102.53,260.13,102.44,265.13,102.44z"/>
	<path class="st4" d="M208.96,121.41c-4.23,2.5-7.71,3.46-9.97-1.05c-1.85-3.68-0.39-7.2,3.98-9.93c3.53-2.2,7.05-4.41,10.64-6.5
		c6.74-3.92,12.03-1.03,12.04,6.59c0.02,20.3,0.02,40.6,0,60.9c-0.01,5.94-2.13,8.05-8.05,8.13c-6.15,0.09-8.61-2.2-8.62-8.18
		C208.94,155.08,208.96,138.79,208.96,121.41z"/>
	<path class="st4" d="M365,104.66c-0.29,0.74-0.7,2-1.28,3.18c-11.65,23.91-23.32,47.81-34.98,71.72c-0.22,0.45-0.42,0.91-0.66,1.34
		c-1.83,3.29-4.55,4.43-7.94,2.7c-3.42-1.75-3.99-4.59-2.32-8c5.34-10.9,10.65-21.81,15.97-32.72
		c6.55-13.45,13.07-26.92,19.67-40.34c2.32-4.72,6.13-5.75,9.57-2.81C364.38,100.88,365.05,102.32,365,104.66z"/>
	<path class="st4" d="M126.38,104.84c-0.46,1.05-0.96,2.28-1.54,3.47c-11.5,23.61-23.02,47.22-34.54,70.82
		c-0.36,0.75-0.72,1.5-1.17,2.2c-1.91,2.96-4.58,3.92-7.71,2.28c-3.14-1.65-3.95-4.41-2.42-7.62c3.44-7.2,6.99-14.34,10.48-21.52
		c8.37-17.19,16.71-34.39,25.1-51.57c2.41-4.92,5.83-6.12,9.43-3.45C125.75,100.73,126.59,102.45,126.38,104.84z"/>
	<path class="st4" d="M332.54,124.48c0,2,0.01,4,0,5.99c-0.09,10.62-5.28,15.54-16.3,15.46c-10.38-0.07-15.39-4.98-15.48-15.24
		c-0.04-4.99-0.15-10,0.05-14.98c0.36-8.76,5.94-13.3,15.94-13.22c9.97,0.09,15.43,4.73,15.76,13.49c0.1,2.83,0.02,5.66,0.02,8.49
		C332.53,124.48,332.53,124.48,332.54,124.48z"/>
	<path class="st4" d="M380.73,158.14c0,2.66,0.09,5.33-0.02,7.99c-0.36,8.83-5.47,13.43-15.03,13.62
		c-10.49,0.21-16.1-4.03-16.63-13.01c-0.33-5.64-0.29-11.33-0.02-16.98c0.42-8.97,5.9-13.48,15.8-13.41
		c10.35,0.08,15.56,4.58,15.9,13.79C380.81,152.81,380.73,155.48,380.73,158.14z"/>
	<path class="st4" d="M93.76,124.1c0,3,0.16,6-0.03,8.99c-0.53,8.06-5.36,12.31-14.31,12.78c-10.08,0.53-16.04-3.16-17.07-11.33
		c-0.87-6.92-0.94-14,0.06-20.92c1.15-7.96,7-11.57,16.79-11.09c9.04,0.44,13.93,4.61,14.51,12.58c0.22,2.98,0.04,5.99,0.04,8.99
		C93.74,124.1,93.75,124.1,93.76,124.1z"/>
	<path class="st4" d="M110.36,157.94c0-2.5-0.08-5,0.01-7.49c0.36-9.36,5.26-13.91,15.08-14.08c10.6-0.18,16.21,4.25,16.68,13.58
		c0.28,5.48,0.3,11-0.01,16.48c-0.51,9.08-6.04,13.42-16.4,13.33c-9.89-0.09-14.92-4.59-15.33-13.82
		C110.26,163.28,110.36,160.61,110.36,157.94z"/>
	<path class="st5" d="M326.56,292.09c0-5.83-0.22-11.68,0.05-17.49c0.49-10.36,6.49-17.34,16.52-19.94
		c5.11-1.32,10.3-1.37,15.37-0.53c12.25,2.04,18.95,9.97,19.14,22.47c0.17,10.66,0.17,21.33-0.01,32
		c-0.22,12.94-8.71,21.58-21.59,22.18c-3.32,0.16-6.69,0.25-9.99-0.12c-11.42-1.28-19-9.45-19.49-21.06
		c-0.24-5.82-0.04-11.66-0.04-17.5C326.54,292.09,326.55,292.09,326.56,292.09z"/>
	<path class="st5" d="M286.39,330.87c-5.98,0.26-11.56-0.95-16.63-4.29c-3.17-2.09-5.51-4.84-6.9-8.32
		c-1.45-3.61-2.76-7.77-0.09-10.92c2.91-3.42,7.46-1.83,11.34-1.41c2.24,0.24,3.41,2.08,3.46,4.29c0.08,3.94,2.49,5.77,5.9,6.26
		c4.12,0.59,8.52,1.13,11.5-2.79c5.02-6.61,1.06-16.1-7.13-16.73c-4.26-0.33-6.03-2.29-6.07-6.21c-0.04-3.6,1.35-5.82,5.39-6.4
		c6.14-0.87,8.6-4.91,7.35-11.1c-0.88-4.34-4.59-6.28-10.22-5.41c-3.25,0.5-4.79,2.37-5.4,5.59c-0.96,5.04-4.39,6.51-11.35,5.3
		c-4.76-0.83-5-4.25-4.53-7.96c1.14-9.06,7.53-15.17,17.86-16.72c4.43-0.67,8.97-0.69,13.42,0.19
		c15.29,3.05,21.65,20.18,11.76,32.34c-2.35,2.89-2.25,4.06,0.77,5.81c9.5,5.5,8.25,29.56-4.94,35.43
		C296.89,330.04,291.79,331.1,286.39,330.87z"/>
	<path class="st5" d="M145.76,334.96c-4.5,0.12-6.91-2.82-5.87-6.81c0.25-0.95,0.72-1.86,1.15-2.76
		c11.58-23.78,23.18-47.55,34.76-71.32c1.12-2.3,2.32-4.42,5.38-4.49c4.76-0.12,7.39,3.94,5.22,8.51
		c-4.64,9.77-9.44,19.46-14.18,29.17c-7,14.35-14.02,28.69-21.01,43.05C150,332.8,148.73,335.11,145.76,334.96z"/>
	<path class="st5" d="M454.6,256.1c-0.29,0.7-0.84,2.26-1.56,3.74c-11.27,23.17-22.56,46.33-33.86,69.48
		c-0.87,1.78-1.57,3.77-3.38,4.83c-2.17,1.27-4.52,1.33-6.55-0.25c-1.99-1.56-2.87-3.64-1.75-6.18c0.33-0.76,0.64-1.54,1-2.28
		c11.59-23.75,23.22-47.48,34.72-71.28c1.8-3.73,4.13-5.62,8.22-4.06C453.63,250.93,454.88,252.66,454.6,256.1z"/>
	<path class="st5" d="M422.68,275.4c-0.21,3.37-0.05,7.08-0.74,10.63c-1.58,8.14-7.32,11.41-18,10.72
		c-7.88-0.51-12.77-5.12-13.15-12.88c-0.28-5.63-0.25-11.3-0.02-16.94c0.32-7.86,5.06-12.53,12.88-13.15
		c10.79-0.85,16.79,2.59,18.34,10.92C422.63,268.09,422.47,271.63,422.68,275.4z"/>
	<path class="st5" d="M470.63,309.4c0,2,0.01,4,0,6c-0.08,10.12-4.94,15.11-14.96,15.35c-10.77,0.26-16.38-4.5-16.71-14.67
		c-0.19-5.81-0.62-11.67,0.43-17.46c1.12-6.19,4.31-9.78,10.36-10.62c11.88-1.65,21.82,1.12,20.9,16.89
		C470.56,306.4,470.63,307.9,470.63,309.4z"/>
	<path class="st5" d="M202.88,309.13c0,2.67,0.07,5.33-0.01,7.99c-0.29,9.11-5.77,13.76-15.96,13.63
		c-9.88-0.13-15.14-4.88-15.26-13.89c-0.07-5.5-0.13-11,0.03-16.49c0.2-6.86,4.53-11.67,11.28-12.49c2.79-0.34,5.68-0.33,8.47-0.03
		c7.01,0.77,11.04,5.19,11.38,12.27c0.14,2.99,0.02,5.99,0.02,8.99C202.86,309.13,202.87,309.13,202.88,309.13z"/>
	<path class="st5" d="M123.5,275.09c0-2.66-0.07-5.33,0.01-7.99c0.26-8.95,5.44-13.36,15.6-13.35c10.08,0.01,15.33,4.5,15.56,13.43
		c0.11,4.33,0.06,8.66,0.05,12.98c-0.05,13.08-7.55,19.07-20.41,16.31c-7.04-1.51-10.58-5.69-10.8-12.9
		C123.43,280.76,123.51,277.92,123.5,275.09z"/>
	<path class="st6" d="M238.6,244.76c-5,0-10,0-15,0.01c0.06-5.57,2.87-8.92,7.48-8.93C235.68,235.83,238.5,239.18,238.6,244.76z"/>
	<path class="st7" d="M402.56,443.31c0-5.16-0.17-10.33,0.05-15.48c0.24-5.57,3.52-8.72,8.76-8.9c5.34-0.18,9.03,2.59,9.49,8.1
		c0.91,10.78,0.85,21.62,0.06,32.41c-0.44,5.95-3.96,8.54-9.73,8.31c-5.5-0.22-8.42-3.3-8.62-9.47c-0.16-4.99-0.03-9.98-0.03-14.98
		C402.54,443.31,402.55,443.31,402.56,443.31z"/>
	<path class="st7" d="M519.7,460.52c0,2.49,0.08,4.99-0.02,7.48c-0.13,3.33-2.24,4.69-5.29,4.65c-2.9-0.03-4.76-1.53-4.8-4.58
		c-0.07-5.32-0.1-10.64,0.03-15.96c0.08-3.06,2-4.35,4.95-4.35c2.92,0,4.88,1.22,5.06,4.27c0.17,2.82,0.04,5.65,0.04,8.48
		C519.68,460.52,519.69,460.52,519.7,460.52z"/>
	<path class="st7" d="M253.64,460.4c0,2.33-0.02,4.66,0,6.99c0.03,3.53-1.88,5.24-5.23,5.27c-3.2,0.03-4.93-1.72-4.95-4.96
		c-0.03-4.99-0.03-9.98-0.01-14.97c0.02-3.23,1.63-4.92,4.91-4.95c3.48-0.04,5.25,1.66,5.27,5.14
		C253.65,455.41,253.64,457.91,253.64,460.4z"/>
	<path class="st7" d="M471.61,426.05c0,2.49,0.07,4.99-0.02,7.48c-0.12,3.37-1.87,5.21-5.33,5.21c-3.3,0-4.89-1.8-4.93-4.96
		c-0.07-4.98-0.06-9.97,0-14.95c0.03-3.19,1.69-4.98,4.92-5c3.12-0.02,5.07,1.58,5.29,4.75c0.18,2.48,0.04,4.98,0.04,7.47
		C471.59,426.05,471.6,426.05,471.61,426.05z"/>
	<path class="st8" d="M205.47,426.6c0,2.5,0.15,5.01-0.04,7.49c-0.25,3.16-2.18,4.69-5.36,4.67c-3.03-0.02-4.83-1.63-4.94-4.51
		c-0.2-5.32-0.22-10.66,0.02-15.97c0.13-2.85,2.04-4.49,5.02-4.47c3.15,0.02,5.06,1.65,5.28,4.8
		C205.62,421.26,205.48,423.93,205.47,426.6z"/>
	<path class="st9" d="M321.73,124.19c0,2.48,0.03,4.96-0.01,7.45c-0.05,3.28-1.96,4.84-5.03,4.88c-3.14,0.05-4.99-1.65-5.05-4.86
		c-0.09-4.96-0.09-9.93,0-14.89c0.06-3.18,1.86-4.92,5.02-4.9c3.1,0.03,4.98,1.62,5.06,4.87
		C321.78,119.23,321.73,121.71,321.73,124.19z"/>
	<path class="st10" d="M369.93,158.41c0,2.15-0.04,4.3,0.02,6.45c0.09,3.37-1.33,5.41-4.86,5.49c-3.48,0.08-5.17-1.76-5.18-5.19
		c-0.01-4.8-0.04-9.59,0.02-14.39c0.04-3.14,1.61-5,4.86-5.03c3.44-0.03,5.17,1.75,5.14,5.22
		C369.91,153.45,369.93,155.93,369.93,158.41z"/>
	<path class="st10" d="M82.93,124.67c0,2.48,0.06,4.96-0.02,7.44c-0.1,3.1-2.04,4.38-4.88,4.42c-2.89,0.04-4.88-1.35-4.97-4.35
		c-0.16-5.29-0.15-10.58-0.02-15.87c0.08-2.99,2.03-4.46,4.91-4.44c3.11,0.02,4.97,1.59,5,4.87c0.02,2.65,0,5.29,0,7.94
		C82.95,124.67,82.94,124.67,82.93,124.67z"/>
	<path class="st10" d="M121.34,157.93c0-2.48-0.03-4.96,0-7.44c0.04-2.98,1.58-4.61,4.56-4.73c3.12-0.13,5.23,1.3,5.33,4.52
		c0.17,5.28,0.15,10.58-0.03,15.86c-0.1,3.05-2.24,4.26-5.08,4.21c-2.88-0.05-4.73-1.39-4.78-4.49
		C121.31,163.22,121.34,160.58,121.34,157.93z"/>
	<path class="st2" d="M361.52,292.5c0,4.83,0.18,9.66-0.05,14.48c-0.31,6.45-3.81,9.85-9.59,9.77c-5.74-0.08-9.13-3.65-9.21-10.09
		c-0.11-9.49-0.1-18.98-0.01-28.46c0.06-6.48,3.44-10.21,9.02-10.31c5.99-0.11,9.55,3.45,9.8,10.14c0.18,4.82,0.04,9.65,0.04,14.48
		C361.53,292.5,361.52,292.5,361.52,292.5z"/>
	<path class="st2" d="M411.66,275.47c0,2.49,0.06,4.98-0.02,7.46c-0.1,3.25-1.94,4.8-5.11,4.78c-3.23-0.02-4.91-1.75-4.94-4.95
		c-0.05-4.98-0.04-9.95-0.01-14.93c0.02-3.18,1.63-4.97,4.87-5.02c3.47-0.05,5.2,1.75,5.22,5.2c0.01,2.49,0,4.98,0,7.46
		C411.67,275.47,411.66,275.47,411.66,275.47z"/>
	<path class="st2" d="M459.84,309.23c0,2.48,0.02,4.97,0,7.45c-0.03,2.95-1.53,4.71-4.46,4.92c-3.05,0.21-5.41-1.17-5.57-4.34
		c-0.27-5.45-0.27-10.93-0.03-16.39c0.13-2.96,2.29-4.17,5.2-4.1c2.99,0.07,4.68,1.53,4.81,4.51c0.11,2.64,0.02,5.3,0.02,7.95
		C459.82,309.23,459.83,309.23,459.84,309.23z"/>
	<path class="st2" d="M182.46,308.82c0-2.48-0.07-4.97,0.02-7.45c0.11-2.95,1.66-4.53,4.7-4.6c3.14-0.07,5.26,1.25,5.36,4.5
		c0.16,5.29,0.2,10.61-0.06,15.89c-0.16,3.17-2.45,4.6-5.5,4.45c-2.94-0.15-4.49-1.87-4.53-4.84c-0.03-2.65-0.01-5.3-0.01-7.95
		C182.44,308.82,182.45,308.82,182.46,308.82z"/>
	<path class="st11" d="M133.85,275.11c0-2.5-0.15-5,0.04-7.49c0.24-3.11,2.05-4.84,5.25-4.82c3.2,0.02,5.1,1.78,5.22,4.87
		c0.19,5.15,0.22,10.33-0.05,15.47c-0.16,3.11-2.3,4.67-5.46,4.57c-2.97-0.1-4.69-1.75-4.92-4.61c-0.22-2.64-0.05-5.32-0.05-7.98
		C133.87,275.12,133.86,275.11,133.85,275.11z"/>
</g>
</svg>
