<?xml version="1.0" encoding="utf-8"?>
<!-- Generator: Adobe Illustrator 23.0.0, SVG Export Plug-In . SVG Version: 6.00 Build 0)  -->
<svg version="1.1" id="Layer_1" xmlns="http://www.w3.org/2000/svg" xmlns:xlink="http://www.w3.org/1999/xlink" x="0px" y="0px"
	 viewBox="0 0 150 150" style="enable-background:new 0 0 150 150;" xml:space="preserve">
<style type="text/css">
	.Drop_x0020_Shadow{fill:none;}
	.Outer_x0020_Glow_x0020_5_x0020_pt{fill:none;}
	.Blue_x0020_Neon{fill:none;stroke:#8AACDA;stroke-width:7;stroke-linecap:round;stroke-linejoin:round;}
	.Chrome_x0020_Highlight{fill:url(#SVGID_1_);stroke:#FFFFFF;stroke-width:0.3629;stroke-miterlimit:1;}
	.Jive_GS{fill:#FFDD00;}
	.Alyssa_GS{fill:#A6D0E4;}
	.st0{fill:#F9A11E;}
</style>
<linearGradient id="SVGID_1_" gradientUnits="userSpaceOnUse" x1="0" y1="0" x2="6.123234e-17" y2="-1">
	<stop  offset="0" style="stop-color:#656565"/>
	<stop  offset="0.618" style="stop-color:#1B1B1B"/>
	<stop  offset="0.6292" style="stop-color:#545454"/>
	<stop  offset="0.9831" style="stop-color:#3E3E3E"/>
</linearGradient>
<g>
	<path class="st0" d="M80.18,82.98c20.22,10.84,37.81,20.26,55.4,29.69c0.86-0.88,1.72-1.76,2.57-2.64c0,5.09,0.21,10.18-0.04,15.25
		c-0.5,10.16-6.05,15.8-16.17,15.86c-33.63,0.19-67.26,0.16-100.89,0.01c-9.56-0.04-15.65-5.19-15.96-14.81
		c-0.52-16.24-0.48-32.53,0.15-48.76c0.1-2.61,4.37-7.09,6.89-7.22c14.01-0.71,28.07-0.27,42.11-0.37
		c7.03-0.05,8.63,4.01,8.57,10.05c-0.13,13.67,0.08,27.35-0.05,41.02c-0.05,5.63,1.33,9.03,8,9.06c6.47,0.03,9.59-2.08,9.47-8.87
		C80.03,109.19,80.18,97.13,80.18,82.98z"/>
	<path class="st0" d="M78.45,69.18c2.95-6.26,5.41-11.48,7.81-16.57c-10.3-10.22-11.94-10.36-18.83,0.62
		c-3.67,5.85-7.01,6.07-12.54,2.68c-12.26-7.5-24.78-14.6-37.35-21.57c-6.42-3.56-9.46-7.23-5.12-14.85
		C19.15,7.63,24.37,4.01,32.54,8c6.23,3.05,12.17,6.7,18.76,10.37c6.23-9.23,11.6-18.39,24.43-15.98
		c12.41,2.34,14.1,12.54,16.09,19.42c10.66,2.49,21.35,2.32,28.44,7.29c9.91,6.94,5.28,17.75-0.51,28.18
		c5.84,3.72,11.7,7.2,17.27,11.08c9.15,6.37,8.87,10.89,1.77,23.56c-5.19,9.26-10.46,6.43-17.08,2.46
		C107.56,85.88,93.2,77.74,78.45,69.18z M72.88,32.69c3.44-6.02,7-9.49,6.71-12.59c-0.26-2.65-4.93-4.88-7.66-7.29
		c-2.45,2.97-6.37,5.72-6.86,8.98C64.71,24.22,68.81,27.31,72.88,32.69z M106.27,29.66c-3.16,5.65-6.72,9.2-6.46,12.45
		c0.21,2.58,5.09,4.79,7.89,7.17c2.54-3.04,6.64-5.87,7.09-9.2C115.12,37.68,110.57,34.63,106.27,29.66z"/>
</g>
</svg>
