<?xml version="1.0" encoding="utf-8"?>
<!-- Generator: Adobe Illustrator 23.0.0, SVG Export Plug-In . SVG Version: 6.00 Build 0)  -->
<svg version="1.1" id="Layer_1" xmlns="http://www.w3.org/2000/svg" xmlns:xlink="http://www.w3.org/1999/xlink" x="0px" y="0px"
	 viewBox="0 0 150 150" style="enable-background:new 0 0 150 150;" xml:space="preserve">
<style type="text/css">
	.Drop_x0020_Shadow{fill:none;}
	.Outer_x0020_Glow_x0020_5_x0020_pt{fill:none;}
	.Blue_x0020_Neon{fill:none;stroke:#8AACDA;stroke-width:7;stroke-linecap:round;stroke-linejoin:round;}
	.Chrome_x0020_Highlight{fill:url(#SVGID_1_);stroke:#FFFFFF;stroke-width:0.3629;stroke-miterlimit:1;}
	.Jive_GS{fill:#FFDD00;}
	.Alyssa_GS{fill:#A6D0E4;}
	.st0{fill:#F9A11E;}
</style>
<linearGradient id="SVGID_1_" gradientUnits="userSpaceOnUse" x1="0" y1="0" x2="6.123234e-17" y2="-1">
	<stop  offset="0" style="stop-color:#656565"/>
	<stop  offset="0.618" style="stop-color:#1B1B1B"/>
	<stop  offset="0.6292" style="stop-color:#545454"/>
	<stop  offset="0.9831" style="stop-color:#3E3E3E"/>
</linearGradient>
<g>
	<path class="st0" d="M75.31,3.02c9.34,0,18.68-0.05,28.03,0.02c6,0.05,8.16,2.1,8.19,8.06c0.08,17.38,0.27,34.76-0.2,52.12
		c-0.08,2.89-2.55,6.65-5.05,8.36c-8.31,5.67-17.05,10.74-25.8,15.72c-3.16,1.8-3.75,3.75-2.21,6.75c0.09,0.17,0.16,0.34,0.23,0.51
		c5.45,13.91,5.46,13.86,20.42,15.24c1.6,0.15,3.57,1.1,4.43,2.33c0.45,0.65-0.78,3.36-1.91,4.04c-9.93,5.99-12.66,14.02-7.99,24.74
		c0.55,1.26-0.31,3.74-1.36,4.84c-0.56,0.59-3.39-0.06-4.42-1c-8.64-7.89-16.99-7.33-25.52,0.19c-1.01,0.89-3.51,1.39-4.38,0.77
		c-0.99-0.71-1.69-3.24-1.17-4.38c5.09-11.28,1.5-19.4-8.53-25.62c-0.94-0.58-1.68-2.76-1.32-3.78c0.35-1,2.2-1.5,3.43-2.16
		c0.3-0.16,0.74-0.03,1.11-0.06c15.42-1.06,16.39-1.99,21.09-16.73c1.18-3.71-1.1-4.67-3.27-5.99c-7.98-4.84-15.92-9.77-24.06-14.32
		c-4.78-2.67-6.77-6.11-6.65-11.74c0.34-16.25,0.1-32.51,0.13-48.76c0.02-7.39,1.83-9.15,9.34-9.17C57,2.99,66.16,3.01,75.31,3.02z
		 M66.67,44.09c0,8.95,0,17.9,0,26.86c0,7.29,3.25,12.11,8.22,12.22c4.97,0.11,8.49-4.84,8.49-11.94c0-16.97,0.1-33.94-0.03-50.91
		C83.25,7.1,85.46,9.1,71.81,8.75c-3.89-0.1-5.27,1.22-5.19,5.12C66.81,23.94,66.68,34.02,66.67,44.09z"/>
</g>
</svg>
