<?xml version="1.0" encoding="utf-8"?>
<!-- Generator: Adobe Illustrator 23.0.0, SVG Export Plug-In . SVG Version: 6.00 Build 0)  -->
<svg version="1.1" id="Layer_1" xmlns="http://www.w3.org/2000/svg" xmlns:xlink="http://www.w3.org/1999/xlink" x="0px" y="0px"
	 viewBox="0 0 150 150" style="enable-background:new 0 0 150 150;" xml:space="preserve">
<style type="text/css">
	.Drop_x0020_Shadow{fill:none;}
	.Outer_x0020_Glow_x0020_5_x0020_pt{fill:none;}
	.Blue_x0020_Neon{fill:none;stroke:#8AACDA;stroke-width:7;stroke-linecap:round;stroke-linejoin:round;}
	.Chrome_x0020_Highlight{fill:url(#SVGID_1_);stroke:#FFFFFF;stroke-width:0.3629;stroke-miterlimit:1;}
	.Jive_GS{fill:#FFDD00;}
	.Alyssa_GS{fill:#A6D0E4;}
	.st0{fill:#F9A11E;}
</style>
<linearGradient id="SVGID_1_" gradientUnits="userSpaceOnUse" x1="0" y1="0" x2="6.123234e-17" y2="-1">
	<stop  offset="0" style="stop-color:#656565"/>
	<stop  offset="0.618" style="stop-color:#1B1B1B"/>
	<stop  offset="0.6292" style="stop-color:#545454"/>
	<stop  offset="0.9831" style="stop-color:#3E3E3E"/>
</linearGradient>
<g>
	<path class="st0" d="M75.17,17.42c18.76,0.01,37.52-0.08,56.28,0.04c11.33,0.07,16.04,4.79,16.52,16.24
		c0.17,3.99-0.25,8.02,0.1,11.99c0.63,7.26-0.79,12.22-8.3,16.25c-10.2,5.48-9.24,20.99,1.49,26.6c5.85,3.06,6.72,6.72,6.84,12.35
		c0.64,29.43-1.75,32.24-31.33,31.63c-31.97-0.66-63.97-0.12-95.96-0.17c-13.9-0.02-18.78-4.96-18.91-18.9
		c-0.04-4,0.21-8.01-0.06-11.99c-0.4-5.97,0.96-9.91,7.03-13.23c11.37-6.23,10.98-21.55-0.5-27.61c-5.32-2.81-6.56-6.12-6.58-11.59
		C1.67,17.9,2.03,17.42,32.73,17.42C46.88,17.42,61.03,17.42,75.17,17.42z M47.93,108.59c0.85,0.5,1.71,1,2.56,1.51
		c3.61-2.15,7.82-3.7,10.73-6.56c9.7-9.52,18.66-7.68,28.08,0.34c3.24,2.76,7.39,4.45,11.12,6.62c0.07-8.61-1.31-15.77-3.54-22.67
		c-1.79-5.53-0.68-9.09,4.07-12.57c5.94-4.35,11.23-9.59,18.44-15.86c-9.82-1.07-16.8-2.37-23.8-2.45
		c-6.18-0.06-9.53-2.23-11.47-8.18c-2.17-6.67-5.37-13-8.12-19.47c-0.87,0.12-1.73,0.24-2.6,0.37c-2.67,6.45-5.65,12.8-7.9,19.39
		c-1.85,5.42-4.79,7.78-10.74,7.84c-7.23,0.07-14.45,1.37-24.49,2.44c7.27,6.31,12.43,11.34,18.17,15.59
		c4.99,3.69,6.21,7.58,4.28,13.49C50.59,94.97,49.48,101.85,47.93,108.59z"/>
</g>
</svg>
